<svg xmlns="http://www.w3.org/2000/svg" viewBox="0 0 23 23" width="23" height="23"><style>.a{fill:#fff}</style><path fill-rule="evenodd" class="a" d="m22 19.6l-1.1 1.1c-0.3 0.2-0.6 0.4-1 0.4q-0.1 0-0.3-0.1l-0.3 0.3c-0.8 0.8-2 1.2-3.4 1.2q-1.2 0-2.7-0.4c-2.5-0.8-5.2-2.5-7.5-4.8-2.3-2.3-4-4.9-4.8-7.4-0.8-2.5-0.5-4.6 0.7-6 0 0 0.4-0.4 0.4-0.4-0.2-0.4-0.1-0.9 0.3-1.3l1.1-1.1c0.3-0.3 0.6-0.4 1-0.4 0.4 0 0.7 0.1 0.9 0.4l4.4 4.3c0.6 0.6 0.6 1.4 0 1.9l-1.1 1.2c-0.3 0.2-0.6 0.4-1 0.4q-0.1 0-0.3-0.1l-0.5 0.4c-0.3 0.3 0.2 2.2 2.5 4.5 2.3 2.3 4.2 2.8 4.5 2.5q0 0 0 0l0.5-0.4c-0.2-0.5-0.1-1 0.3-1.4l1.1-1.1c0.6-0.5 1.4-0.5 1.9 0l4.4 4.4c0.6 0.5 0.6 1.3 0 1.9zm-18.7-16.4l2.2 2.1 2.1 2.2q0 0 0 0l1.2-1.1-4.4-4.4zm15.2 17.1l-3.4-3.4-0.3 0.3q0 0 0 0-0.5 0.5-1.2 0.5c-1.5 0-3.5-1.3-5.2-3-2.2-2.2-3.8-5.1-2.5-6.3q0 0 0 0l0.3-0.4-3.4-3.3-0.1 0.1c-1 0.9-1.1 2.6-0.4 4.8 0.7 2.2 2.3 4.7 4.4 6.8 2.2 2.1 4.6 3.7 6.9 4.4 2.1 0.7 3.9 0.6 4.8-0.4q0 0 0 0zm2.6-1.6l-4.4-4.4-1.1 1.2 4.4 4.3c0 0 1.1-1.1 1.1-1.1zm-1.6-8.3c0 0.4-0.3 0.7-0.7 0.7-0.3 0-0.6-0.3-0.6-0.7 0-1.4-0.6-2.8-1.6-3.8-1.1-1-2.4-1.6-3.9-1.6-0.3 0-0.6-0.3-0.6-0.6 0-0.4 0.3-0.7 0.6-0.7 1.8 0 3.5 0.7 4.8 2 1.3 1.2 2 2.9 2 4.7zm3.4 0c0 0.4-0.3 0.7-0.7 0.7-0.3 0-0.6-0.3-0.6-0.7 0-2.3-1-4.5-2.6-6.2-1.7-1.6-3.9-2.6-6.3-2.6-0.3 0-0.6-0.3-0.6-0.6 0-0.4 0.3-0.7 0.6-0.7 2.7 0 5.3 1.1 7.2 3 2 1.9 3 4.4 3 7.1zm-6.8 0c0 0.4-0.3 0.7-0.7 0.7-0.4 0-0.7-0.3-0.7-0.7q0-0.8-0.5-1.4-0.6-0.6-1.5-0.6 0 0 0 0c-0.3 0-0.6-0.3-0.6-0.6 0-0.4 0.3-0.7 0.6-0.7q0 0 0 0c0.9 0 1.8 0.3 2.4 1 0.6 0.6 1 1.4 1 2.3z"></path></svg>